<svg xmlns="http://www.w3.org/2000/svg" width="16.615" height="16.615" viewBox="0 0 16.615 16.615">
  <g id="グループ_129" data-name="グループ 129" transform="translate(-94 -8)">
    <path id="線_38" data-name="線 38" d="M13.982,15.115a1.129,1.129,0,0,1-.8-.332L-1.168.434a1.133,1.133,0,0,1,0-1.6,1.133,1.133,0,0,1,1.6,0l14.35,14.35a1.133,1.133,0,0,1-.8,1.934Z" transform="translate(95.5 9.5)" fill="#707070"/>
    <path id="線_39" data-name="線 39" d="M15.482,16.615a1.129,1.129,0,0,1-.8-.332L.332,1.934a1.133,1.133,0,0,1,1.6-1.6l14.35,14.35a1.133,1.133,0,0,1-.8,1.934Z" transform="translate(110.615 8) rotate(90)" fill="#707070"/>
  </g>
</svg>
