<svg id="all_order" data-name="all order" xmlns="http://www.w3.org/2000/svg" width="17.129" height="18.115" viewBox="0 0 17.129 18.115">
  <g id="グループ_82" data-name="グループ 82" transform="translate(0.25 0.25)">
    <path id="パス_34" data-name="パス 34" d="M2.152,33.559A2.154,2.154,0,1,0,0,31.4,2.155,2.155,0,0,0,2.152,33.559Zm0-3.308A1.152,1.152,0,1,1,1,31.4,1.153,1.153,0,0,1,2.152,30.251Z" transform="translate(0 -29.25)" fill="#ff6969"/>
    <path id="パス_34_-_アウトライン" data-name="パス 34 - アウトライン" d="M2.152,33.809a2.4,2.4,0,1,1,2.4-2.4A2.407,2.407,0,0,1,2.152,33.809Zm0-4.309a1.9,1.9,0,1,0,1.9,1.906A1.9,1.9,0,0,0,2.152,29.5Zm0,3.3a1.4,1.4,0,1,1,1.4-1.4A1.4,1.4,0,0,1,2.152,32.8Zm0-2.3a.9.9,0,1,0,.9.9A.9.9,0,0,0,2.152,30.5Z" transform="translate(0 -29.25)" fill="#ff6969"/>
    <path id="パス_35" data-name="パス 35" d="M2.152,196.455A2.152,2.152,0,1,0,0,194.3,2.155,2.155,0,0,0,2.152,196.455Zm0-3.3A1.152,1.152,0,1,1,1,194.3,1.153,1.153,0,0,1,2.152,193.151Z" transform="translate(0 -185.495)" fill="#ff6969"/>
    <path id="パス_35_-_アウトライン" data-name="パス 35 - アウトライン" d="M2.152,196.7a2.4,2.4,0,1,1,2.4-2.4A2.405,2.405,0,0,1,2.152,196.7Zm0-4.3a1.9,1.9,0,1,0,1.9,1.9A1.9,1.9,0,0,0,2.152,192.4Zm0,3.3a1.4,1.4,0,1,1,1.4-1.4A1.4,1.4,0,0,1,2.152,195.7Zm0-2.3a.9.9,0,1,0,.9.9A.9.9,0,0,0,2.152,193.4Z" transform="translate(0 -185.495)" fill="#ff6969"/>
    <path id="パス_36" data-name="パス 36" d="M2.152,359.355A2.152,2.152,0,1,0,0,357.2,2.155,2.155,0,0,0,2.152,359.355Zm0-3.308A1.152,1.152,0,1,1,1,357.2,1.153,1.153,0,0,1,2.152,356.047Z" transform="translate(0 -341.739)" fill="#ff6969"/>
    <path id="パス_36_-_アウトライン" data-name="パス 36 - アウトライン" d="M2.152,359.6a2.4,2.4,0,1,1,2.4-2.4A2.405,2.405,0,0,1,2.152,359.6Zm0-4.3a1.9,1.9,0,1,0,1.9,1.9A1.9,1.9,0,0,0,2.152,355.3Zm0,3.3a1.4,1.4,0,1,1,1.4-1.4A1.4,1.4,0,0,1,2.152,358.6Zm0-2.3a.9.9,0,1,0,.9.9A.9.9,0,0,0,2.152,356.3Z" transform="translate(0 -341.739)" fill="#ff6969"/>
    <path id="パス_37" data-name="パス 37" d="M164.1,70.655h12.314a.5.5,0,0,0,0-1H164.1a.5.5,0,0,0,0,1Z" transform="translate(-160.289 -68)" fill="#ff6969"/>
    <path id="パス_37_-_アウトライン" data-name="パス 37 - アウトライン" d="M176.416,70.9H164.1a.752.752,0,1,1,0-1.5h12.314a.752.752,0,0,1,0,1.5Zm-12.314-1a.252.252,0,0,0,0,.5h12.314a.252.252,0,0,0,0-.5Z" transform="translate(-160.289 -68)" fill="#ff6969"/>
    <path id="パス_38" data-name="パス 38" d="M164.1,233.555h12.314a.5.5,0,0,0,0-1H164.1a.5.5,0,1,0,0,1Z" transform="translate(-160.289 -224.245)" fill="#ff6969"/>
    <path id="パス_38_-_アウトライン" data-name="パス 38 - アウトライン" d="M176.416,233.8H164.1a.752.752,0,1,1,0-1.5h12.314a.752.752,0,0,1,0,1.5Zm-12.314-1a.252.252,0,1,0,0,.5h12.314a.252.252,0,0,0,0-.5Z" transform="translate(-160.289 -224.245)" fill="#ff6969"/>
    <path id="パス_39" data-name="パス 39" d="M164.1,396.355h12.314a.5.5,0,1,0,0-1H164.1a.5.5,0,1,0,0,1Z" transform="translate(-160.289 -380.394)" fill="#ff6969"/>
    <path id="パス_39_-_アウトライン" data-name="パス 39 - アウトライン" d="M176.416,396.6H164.1a.752.752,0,1,1,0-1.5h12.314a.752.752,0,1,1,0,1.5Zm-12.314-1a.252.252,0,1,0,0,.5h12.314a.252.252,0,1,0,0-.5Z" transform="translate(-160.289 -380.394)" fill="#ff6969"/>
  </g>
</svg>
