<svg id="グループ_36" data-name="グループ 36" xmlns="http://www.w3.org/2000/svg" width="23.712" height="23.712" viewBox="0 0 23.712 23.712">
  <circle id="楕円形_11" data-name="楕円形 11" cx="11.856" cy="11.856" r="11.856" fill="#727c8e" opacity="0.2"/>
  <g id="合体_1" data-name="合体 1" transform="translate(4.95 11.856) rotate(-45)" fill="#fff">
    <path d="M 6.903900146484375 7.403800010681152 L 0.9998999834060669 7.403800010681152 C 0.7242500185966492 7.403800010681152 0.5 7.179550170898438 0.5 6.903900146484375 L 0.5 6.269400119781494 C 0.5 5.993750095367432 0.7242500185966492 5.769499778747559 0.9998999834060669 5.769499778747559 L 5.269499778747559 5.769499778747559 L 5.769499778747559 5.769499778747559 L 5.769499778747559 5.269499778747559 L 5.769499778747559 0.9998999834060669 C 5.769499778747559 0.7242500185966492 5.993750095367432 0.5 6.269400119781494 0.5 L 6.903900146484375 0.5 C 7.179550170898438 0.5 7.403800010681152 0.7242500185966492 7.403800010681152 0.9998999834060669 L 7.403800010681152 6.269400119781494 L 7.403800010681152 6.903900146484375 C 7.403800010681152 7.179550170898438 7.179550170898438 7.403800010681152 6.903900146484375 7.403800010681152 Z" stroke="none"/>
    <path d="M 6.903900146484375 6.903800010681152 L 6.903800010681152 6.903800010681152 L 6.903900146484375 1 L 6.269499778747559 0.9998999834060669 L 6.269499778747559 6.269499778747559 L 1 6.269400119781494 L 0.9998999834060669 6.903800010681152 L 6.903900146484375 6.903800010681152 M 6.903900146484375 7.903800010681152 L 0.9998999834060669 7.903800010681152 C 0.4473000168800354 7.903800010681152 5.340575981449547e-09 7.456500053405762 5.340575981449547e-09 6.903900146484375 L 5.340575981449547e-09 6.269400119781494 C 5.340575981449547e-09 5.716800212860107 0.4473000168800354 5.269499778747559 0.9998999834060669 5.269499778747559 L 5.269499778747559 5.269499778747559 L 5.269499778747559 0.9998999834060669 C 5.269499778747559 0.4473000168800354 5.716800212860107 5.340575981449547e-09 6.269400119781494 5.340575981449547e-09 L 6.903900146484375 5.340575981449547e-09 C 7.456500053405762 5.340575981449547e-09 7.903800010681152 0.4473000168800354 7.903800010681152 0.9998999834060669 L 7.903800010681152 6.903900146484375 C 7.903800010681152 7.456500053405762 7.456500053405762 7.903800010681152 6.903900146484375 7.903800010681152 Z" stroke="none" fill="#727c8e"/>
  </g>
</svg>
