<svg id="グループ_147" data-name="グループ 147" xmlns="http://www.w3.org/2000/svg" width="16.98" height="16.989" viewBox="0 0 16.98 16.989">
  <ellipse id="楕円形_31" data-name="楕円形 31" cx="8.255" cy="8.255" rx="8.255" ry="8.255" transform="translate(0)" fill="#fff"/>
  <path id="楕円形_31_-_アウトライン" data-name="楕円形 31 - アウトライン" d="M8.49,1.2a7.287,7.287,0,0,0-5.153,12.44A7.287,7.287,0,0,0,13.643,3.337,7.24,7.24,0,0,0,8.49,1.2m0-1.2A8.49,8.49,0,1,1,0,8.49,8.49,8.49,0,0,1,8.49,0Z" transform="translate(0 0.009)" fill="#464646"/>
  <path id="線_59" data-name="線 59" d="M-1.1,4.809a.6.6,0,0,1-.6-.6V-1.1a.6.6,0,0,1,.6-.6.6.6,0,0,1,.6.6V4.208A.6.6,0,0,1-1.1,4.809Z" transform="translate(9.589 4.645)" fill="#464646"/>
  <path id="線_60" data-name="線 60" d="M3.146,3.748a.6.6,0,0,1-.425-.176L-1.524-.673a.6.6,0,0,1,0-.85.6.6,0,0,1,.85,0L3.572,2.721a.6.6,0,0,1-.425,1.027Z" transform="translate(9.589 9.951)" fill="#464646"/>
</svg>
