<svg xmlns="http://www.w3.org/2000/svg" width="16.788" height="16.788" viewBox="0 0 16.788 16.788">
  <g id="グループ_155" data-name="グループ 155" transform="translate(-146 -721)">
    <path id="パス_1001" data-name="パス 1001" d="M8.394,0A8.394,8.394,0,1,1,0,8.394,8.394,8.394,0,0,1,8.394,0Z" transform="translate(146 721)" fill="#ff6e6e"/>
    <path id="パス_1003" data-name="パス 1003" d="M1.975,0A1.975,1.975,0,1,1,0,1.975,1.975,1.975,0,0,1,1.975,0Z" transform="translate(147.975 724.95)" fill="#fff"/>
    <path id="パス_1002" data-name="パス 1002" d="M1.975,0A1.975,1.975,0,1,1,0,1.975,1.975,1.975,0,0,1,1.975,0Z" transform="translate(156.863 724.95)" fill="#fff"/>
    <path id="パス_1000" data-name="パス 1000" d="M8.888,4.477A4.444,4.444,0,0,1,0,4.477C0,2.022,8.888,2.022,8.888,4.477Z" transform="translate(149.95 727.88)" fill="#fff"/>
  </g>
</svg>
